<svg width="155" height="33" viewBox="0 0 155 33" fill="none" xmlns="http://www.w3.org/2000/svg">
<path d="M15.6204 11.632C15.5235 10.6544 15.1074 9.89503 14.3722 9.35375C13.6371 8.81247 12.6393 8.54183 11.379 8.54183C10.5227 8.54183 9.79962 8.66301 9.20987 8.90537C8.62011 9.13966 8.1677 9.46685 7.85262 9.88695C7.54563 10.3071 7.39213 10.7837 7.39213 11.3169C7.37597 11.7612 7.46888 12.149 7.67085 12.4803C7.8809 12.8115 8.1677 13.0983 8.53124 13.3407C8.89479 13.5749 9.31489 13.7809 9.79154 13.9587C10.2682 14.1283 10.7772 14.2738 11.3184 14.3949L13.5482 14.9281C14.6308 15.1705 15.6245 15.4937 16.5293 15.8976C17.4341 16.3015 18.2178 16.7984 18.8802 17.3881C19.5427 17.9779 20.0557 18.6727 20.4192 19.4725C20.7909 20.2723 20.9807 21.1892 20.9888 22.2233C20.9807 23.7421 20.5929 25.059 19.8254 26.1739C19.066 27.2807 17.9673 28.1411 16.5293 28.7551C15.0993 29.361 13.3745 29.6639 11.3548 29.6639C9.35125 29.6639 7.60622 29.3569 6.11971 28.7429C4.64129 28.129 3.48602 27.2201 2.6539 26.0163C1.82986 24.8045 1.39764 23.3059 1.35724 21.5205H6.43479C6.49134 22.3526 6.72967 23.0474 7.14976 23.6048C7.57794 24.1542 8.1475 24.5702 8.85844 24.853C9.57745 25.1277 10.3894 25.265 11.2942 25.265C12.1829 25.265 12.9544 25.1357 13.6088 24.8772C14.2713 24.6187 14.7843 24.2592 15.1478 23.7987C15.5114 23.3382 15.6931 22.809 15.6931 22.2112C15.6931 21.6538 15.5275 21.1852 15.1963 20.8055C14.8731 20.4258 14.3965 20.1026 13.7663 19.836C13.1443 19.5694 12.3808 19.3271 11.476 19.1089L8.77361 18.4303C6.68119 17.9213 5.02907 17.1256 3.81725 16.043C2.60542 14.9605 2.00355 13.5022 2.01163 11.6683C2.00355 10.1657 2.40345 8.85286 3.21133 7.72991C4.0273 6.60695 5.14621 5.73039 6.56809 5.10025C7.98996 4.4701 9.60573 4.15502 11.4154 4.15502C13.2574 4.15502 14.865 4.4701 16.2384 5.10025C17.6199 5.73039 18.6944 6.60695 19.4619 7.72991C20.2294 8.85286 20.6253 10.1536 20.6495 11.632H15.6204ZM23.573 8.82055V4.49433H43.9559V8.82055H36.3578V29.3125H31.1712V8.82055H23.573Z" fill="black"/>
<path d="M112.407 29.3125V4.49433H122.198C124.073 4.49433 125.672 4.8296 126.997 5.50015C128.33 6.16261 129.344 7.1038 130.039 8.3237C130.742 9.53552 131.093 10.9614 131.093 12.6014C131.093 14.2495 130.738 15.6674 130.027 16.8549C129.316 18.0345 128.286 18.9393 126.937 19.5694C125.596 20.1996 123.972 20.5147 122.065 20.5147H115.509V16.2975H121.217C122.219 16.2975 123.051 16.1602 123.713 15.8855C124.376 15.6108 124.869 15.1988 125.192 14.6494C125.523 14.1001 125.689 13.4174 125.689 12.6014C125.689 11.7774 125.523 11.0826 125.192 10.5171C124.869 9.95158 124.372 9.5234 123.701 9.23257C123.039 8.93365 122.203 8.78419 121.193 8.78419H117.654V29.3125H112.407ZM125.81 18.0183L131.978 29.3125H126.185L120.15 18.0183H125.81ZM134.801 29.3125V4.49433H151.525V8.82055H140.049V14.7343H150.664V19.0605H140.049V24.9863H151.573V29.3125H134.801Z" fill="black"/>
<path d="M71.4265 23.2874L68.9834 26.0459C67.0954 27.9339 64.69 29.2197 62.0712 29.7406C59.4525 30.2615 56.7381 29.9942 54.2713 28.9724C51.8045 27.9506 49.6961 26.2203 48.2127 24.0002C46.7293 21.7801 45.9375 19.17 45.9375 16.5C45.9375 13.83 46.7293 11.2199 48.2127 8.9998C49.6961 6.77974 51.8045 5.04942 54.2713 4.02763C56.7381 3.00585 59.4525 2.7385 62.0712 3.2594C64.69 3.7803 67.0954 5.06605 68.9834 6.95406L85.8915 26.0459C87.7795 27.9339 90.185 29.2197 92.8038 29.7406C95.4225 30.2615 98.1369 29.9942 100.604 28.9724C103.07 27.9506 105.179 26.2203 106.662 24.0002C108.146 21.7801 108.937 19.17 108.937 16.5C108.937 13.83 108.146 11.2199 106.662 8.9998C105.179 6.77974 103.07 5.04942 100.604 4.02763C98.1369 3.00585 95.4225 2.7385 92.8038 3.2594C90.185 3.7803 87.7795 5.06605 85.8915 6.95406L83.4485 9.71263" stroke="black" stroke-width="4.5" stroke-linecap="round" stroke-linejoin="round"/>
</svg>
