<svg width="117" height="26" viewBox="0 0 117 26" fill="none" xmlns="http://www.w3.org/2000/svg">
<path d="M11.9013 9.52912C11.8274 8.78433 11.5104 8.20573 10.9503 7.79332C10.3902 7.38092 9.62997 7.17471 8.66974 7.17471C8.01728 7.17471 7.46638 7.26704 7.01705 7.4517C6.56771 7.63021 6.22301 7.8795 5.98295 8.19957C5.74905 8.51965 5.6321 8.88281 5.6321 9.28906C5.61979 9.6276 5.69058 9.92306 5.84446 10.1754C6.0045 10.4278 6.22301 10.6463 6.5 10.831C6.77699 11.0095 7.09706 11.1664 7.46023 11.3018C7.82339 11.4311 8.21117 11.5419 8.62358 11.6342L10.3224 12.0405C11.1473 12.2251 11.9044 12.4714 12.5938 12.7791C13.2831 13.0869 13.8802 13.4654 14.3849 13.9148C14.8897 14.3641 15.2805 14.8935 15.5575 15.5028C15.8407 16.1122 15.9853 16.8108 15.9915 17.5987C15.9853 18.7559 15.6899 19.7592 15.1051 20.6087C14.5265 21.4519 13.6894 22.1075 12.5938 22.5753C11.5043 23.0369 10.1901 23.2678 8.65128 23.2678C7.12476 23.2678 5.79522 23.0339 4.66264 22.5661C3.53622 22.0982 2.65601 21.4058 2.02202 20.4886C1.39418 19.5653 1.06487 18.4235 1.03409 17.0632H4.9027C4.94579 17.6972 5.12737 18.2266 5.44744 18.6513C5.77367 19.0698 6.20762 19.3868 6.74929 19.6023C7.29711 19.8116 7.91572 19.9162 8.60511 19.9162C9.2822 19.9162 9.87003 19.8177 10.3686 19.6207C10.8733 19.4238 11.2642 19.1499 11.5412 18.799C11.8182 18.4482 11.9567 18.045 11.9567 17.5895C11.9567 17.1648 11.8305 16.8078 11.5781 16.5185C11.3319 16.2292 10.9688 15.983 10.4886 15.7798C10.0147 15.5767 9.433 15.392 8.74361 15.2259L6.68466 14.7088C5.09044 14.321 3.83168 13.7147 2.90838 12.8899C1.98509 12.0651 1.52652 10.9541 1.53267 9.55682C1.52652 8.41193 1.8312 7.41169 2.44673 6.55611C3.06842 5.70052 3.92093 5.03267 5.00426 4.55256C6.08759 4.07244 7.31866 3.83239 8.69744 3.83239C10.1009 3.83239 11.3258 4.07244 12.3722 4.55256C13.4247 5.03267 14.2434 5.70052 14.8281 6.55611C15.4129 7.41169 15.7145 8.4027 15.733 9.52912H11.9013ZM17.9604 7.38707V4.09091H33.4902V7.38707H27.7012V23H23.7495V7.38707H17.9604Z" fill="white"/>
<path d="M54.4202 18.4571L52.5588 20.5588C51.1203 21.9973 49.2876 22.9769 47.2924 23.3738C45.2971 23.7707 43.229 23.567 41.3495 22.7885C39.4701 22.01 37.8637 20.6916 36.7335 19.0002C35.6032 17.3087 35 15.32 35 13.2857C35 11.2514 35.6032 9.26276 36.7335 7.57128C37.8637 5.87981 39.4701 4.56146 41.3495 3.78296C43.229 3.00446 45.2971 2.80076 47.2924 3.19764C49.2876 3.59452 51.1203 4.57414 52.5588 6.01262L65.4412 20.5588C66.8797 21.9973 68.7124 22.9769 70.7076 23.3738C72.7029 23.7707 74.771 23.567 76.6505 22.7885C78.5299 22.01 80.1363 20.6916 81.2665 19.0002C82.3968 17.3087 83 15.32 83 13.2857C83 11.2514 82.3968 9.26276 81.2665 7.57128C80.1363 5.87981 78.5299 4.56146 76.6505 3.78296C74.771 3.00446 72.7029 2.80076 70.7076 3.19764C68.7124 3.59452 66.8797 4.57414 65.4412 6.01262L63.5798 8.11439" stroke="white" stroke-width="4.5" stroke-linecap="round" stroke-linejoin="round"/>
<path d="M85.6435 23V4.09091H93.1037C94.5317 4.09091 95.7505 4.34635 96.7599 4.85724C97.7756 5.36198 98.5481 6.07907 99.0774 7.00852C99.6129 7.93182 99.8807 9.01823 99.8807 10.2678C99.8807 11.5234 99.6098 12.6037 99.0682 13.5085C98.5265 14.4072 97.7417 15.0966 96.7138 15.5767C95.692 16.0568 94.4548 16.2969 93.0021 16.2969H88.0071V13.0838H92.3558C93.1191 13.0838 93.7531 12.9792 94.2578 12.7699C94.7625 12.5606 95.138 12.2467 95.3842 11.8281C95.6366 11.4096 95.7628 10.8894 95.7628 10.2678C95.7628 9.63991 95.6366 9.11056 95.3842 8.67969C95.138 8.24882 94.7595 7.92258 94.2486 7.70099C93.7438 7.47325 93.1068 7.35938 92.3374 7.35938H89.6413V23H85.6435ZM95.8551 14.3949L100.555 23H96.1413L91.5433 14.3949H95.8551ZM102.706 23V4.09091H115.447V7.38707H106.704V11.8928H114.792V15.1889H106.704V19.7038H115.484V23H102.706Z" fill="white"/>
</svg>
